<?xml version="1.0" standalone="no"?>
<!DOCTYPE svg PUBLIC "-//W3C//DTD SVG 20010904//EN"
 "http://www.w3.org/TR/2001/REC-SVG-20010904/DTD/svg10.dtd">
<svg version="1.0" xmlns="http://www.w3.org/2000/svg"
 width="611.000000pt" height="611.000000pt" viewBox="0 0 611.000000 611.000000"
 preserveAspectRatio="xMidYMid meet">
<metadata>
Created by potrace 1.11, written by Peter Selinger 2001-2013
</metadata>
<g transform="translate(0.000000,611.000000) scale(0.100000,-0.100000)"
fill="#000000" stroke="none">
<path d="M590 5849 c0 -3 33 -9 73 -12 211 -18 402 -91 526 -203 101 -91 186
-254 216 -412 34 -185 39 -324 39 -1067 -1 -571 -5 -789 -19 -876 -2 -13 -6
-46 -10 -72 -4 -27 -8 -59 -11 -70 -2 -12 -7 -35 -9 -52 -4 -23 -29 -111 -40
-145 -26 -74 -66 -151 -107 -205 -97 -126 -298 -216 -538 -240 -36 -3 -78 -8
-95 -10 -16 -2 -161 -4 -321 -4 l-291 -1 0 -1110 c0 -1005 2 -1110 16 -1110
22 -1 1291 -1 1317 -1 19 1 23 9 30 69 4 37 8 69 9 72 1 6 15 110 21 160 2 19
6 51 9 70 3 19 7 55 10 80 3 25 7 56 10 70 2 14 7 50 10 80 4 30 8 66 10 80 2
14 7 49 10 79 4 30 8 61 10 70 1 9 6 43 9 76 4 33 9 71 11 85 4 23 20 146 30
233 10 77 16 123 21 162 12 81 14 101 19 154 3 30 7 57 9 60 2 3 7 37 11 74 3
37 8 76 9 85 5 25 15 100 21 150 10 80 15 124 19 151 3 14 7 51 11 82 3 31 7
65 9 75 2 11 7 48 11 84 4 36 9 72 10 81 2 9 6 40 10 70 3 30 8 65 10 79 3 14
7 48 10 75 2 28 6 59 9 70 2 11 7 49 11 85 4 36 8 72 10 80 1 8 6 42 10 75 4
32 8 67 10 77 2 9 6 43 10 75 3 32 8 69 10 83 7 46 25 184 30 233 3 26 7 60 9
75 2 15 8 52 11 82 4 30 8 62 10 70 1 8 6 42 9 75 4 33 9 71 11 85 2 14 9 63
15 110 6 47 13 101 16 120 5 36 10 76 19 153 6 53 25 194 30 227 2 14 7 50 10
80 3 30 8 62 10 70 2 8 7 43 10 77 3 34 7 70 9 80 2 10 7 43 10 73 4 30 16
123 27 205 11 83 22 166 24 185 10 85 16 130 25 195 5 39 12 88 14 110 3 22 8
61 12 88 5 44 4 47 -18 48 -132 4 -1468 2 -1468 -2z"/>
<path d="M3284 5848 c-5 -7 3 -102 11 -143 2 -11 6 -47 10 -80 3 -33 8 -70 11
-83 2 -12 7 -47 10 -76 2 -29 6 -63 9 -74 2 -12 7 -52 10 -89 4 -37 8 -75 10
-83 2 -8 7 -42 10 -75 3 -33 8 -71 10 -85 6 -33 14 -95 20 -145 5 -43 22 -189
30 -245 2 -19 7 -55 10 -80 3 -25 8 -56 10 -70 2 -14 6 -50 9 -80 3 -30 8 -65
10 -77 3 -12 7 -48 11 -80 3 -32 8 -71 10 -88 3 -16 12 -88 20 -160 9 -71 18
-143 20 -160 3 -16 18 -140 35 -275 30 -245 38 -303 45 -350 2 -14 9 -69 15
-124 7 -54 13 -106 15 -115 1 -9 6 -45 10 -81 4 -36 8 -72 10 -80 2 -8 6 -44
10 -80 4 -36 8 -72 10 -80 2 -8 6 -44 10 -80 4 -36 8 -72 10 -80 2 -8 6 -44
10 -80 4 -36 8 -72 10 -80 2 -8 6 -44 10 -80 4 -36 9 -73 10 -82 2 -9 7 -48
10 -85 4 -37 9 -75 10 -83 5 -28 14 -95 20 -145 3 -27 8 -63 10 -80 3 -16 7
-50 9 -75 3 -25 10 -79 16 -120 6 -41 13 -100 16 -130 2 -30 6 -66 9 -80 2
-14 7 -45 10 -70 3 -25 7 -61 10 -80 3 -19 7 -55 10 -80 3 -25 7 -61 10 -80 3
-19 7 -53 10 -75 2 -22 12 -95 20 -163 9 -68 17 -140 20 -160 3 -32 11 -94 30
-242 3 -19 10 -71 15 -114 5 -44 11 -81 13 -82 3 -4 212 -7 290 -5 l37 1 0
2795 c0 1537 -3 2795 -7 2796 -56 5 -1016 2 -1019 -3z"/>
<path d="M5053 5852 c-18 -2 -33 -4 -33 -5 0 -2 24 -86 106 -367 14 -47 26
-92 29 -100 4 -17 1 -8 145 -505 56 -192 107 -372 115 -400 7 -27 25 -88 39
-135 64 -221 102 -352 201 -695 58 -203 112 -391 121 -416 8 -25 16 -54 19
-65 4 -18 174 -607 230 -799 15 -49 28 -91 30 -93 1 -2 2 803 1 1789 l-1 1792
-485 1 c-267 1 -500 0 -517 -2z"/>
<path d="M4 4162 l1 -1147 150 0 c83 0 187 3 233 7 228 20 332 161 360 487 10
117 8 1258 -2 1351 -24 217 -91 347 -209 404 -73 35 -87 37 -323 41 l-211 3 1
-1146z"/>
<path d="M2666 5078 c-10 -129 -15 -179 -21 -228 -2 -25 -7 -76 -11 -115 -3
-38 -7 -86 -9 -105 -2 -19 -6 -66 -10 -105 -3 -38 -8 -89 -11 -112 -3 -23 -7
-68 -9 -100 -3 -32 -7 -76 -9 -98 -3 -22 -8 -69 -11 -105 -3 -36 -8 -90 -11
-120 -3 -30 -7 -75 -9 -100 -4 -50 -14 -156 -20 -210 -2 -19 -6 -69 -10 -110
-4 -41 -8 -86 -10 -100 -2 -14 -6 -63 -10 -110 -4 -47 -8 -96 -10 -110 -2 -14
-7 -63 -10 -110 -4 -47 -8 -92 -10 -100 -2 -8 -6 -53 -10 -100 -4 -47 -9 -98
-11 -115 -1 -16 -5 -65 -9 -107 -3 -42 -7 -85 -9 -95 -2 -10 -7 -58 -11 -108
-3 -49 -8 -101 -10 -115 -2 -14 -7 -63 -10 -110 -4 -47 -9 -92 -10 -100 -1 -8
-6 -51 -10 -95 -4 -44 -8 -93 -10 -110 -2 -16 -7 -68 -10 -115 -4 -46 -9 -88
-11 -92 -3 -5 140 -7 318 -6 280 3 323 5 322 18 -1 19 -13 143 -18 195 -3 22
-7 74 -10 115 -4 41 -8 93 -11 115 -2 22 -7 72 -10 110 -6 70 -9 100 -20 205
-3 30 -8 84 -10 120 -3 36 -7 81 -10 100 -2 19 -6 62 -9 95 -3 33 -8 89 -12
125 -7 79 -10 113 -18 210 -4 41 -8 86 -11 100 -2 14 -7 59 -10 100 -3 41 -7
93 -10 115 -2 22 -7 68 -10 103 -10 123 -16 188 -20 227 -5 49 -11 115 -25
265 -6 63 -13 135 -16 160 -2 25 -7 70 -9 100 -8 97 -16 184 -20 225 -3 22 -7
65 -10 95 -11 133 -16 177 -20 215 -3 22 -7 74 -10 115 -6 79 -15 153 -19 158
-2 1 -6 -35 -10 -80z"/>
<path d="M5093 2045 l-1 -1785 42 0 c50 -1 898 -1 942 0 l31 0 -34 118 c-33
112 -69 240 -78 272 -8 31 -75 268 -100 355 -14 50 -28 98 -30 108 -2 11 -25
92 -50 180 -26 89 -64 225 -86 302 -22 77 -46 163 -54 190 -24 84 -276 977
-290 1030 -8 28 -37 131 -65 230 -28 99 -58 203 -65 230 -7 28 -25 88 -38 135
-14 47 -32 110 -40 140 -51 185 -76 273 -80 276 -2 2 -4 -800 -4 -1781z"/>
<path d="M2299 1222 c0 -9 -2 -26 -4 -37 -2 -11 -7 -49 -10 -85 -4 -36 -8 -76
-10 -90 -2 -14 -7 -56 -11 -95 -3 -38 -8 -77 -9 -86 -2 -9 -6 -52 -10 -95 -4
-43 -9 -86 -10 -94 -2 -8 -6 -49 -10 -90 -4 -41 -8 -82 -10 -90 -2 -8 -6 -49
-10 -90 -3 -41 -9 -83 -11 -92 -6 -21 -61 -19 516 -19 492 0 442 -1 437 9 -3
4 -8 43 -12 87 -4 44 -9 87 -10 95 -2 8 -6 42 -9 75 -4 33 -9 80 -12 105 -2
25 -7 65 -9 90 -5 44 -10 89 -20 178 -3 23 -7 61 -9 85 -3 23 -8 69 -12 102
-7 57 -10 83 -13 131 l-1 22 -370 0 c-340 1 -370 -1 -371 -16z"/>
</g>
</svg>
